# xmcd
#
# Track frame offsets: 
#        150
#        8034
#        16521
#        28357
#        36561
#        53947
#        60129
#        75027
#        81387
#        93369
#        109086
#        116251
#        123308
#        142374
#        152699
#        162762
#        174879
#        180978
#        189790
#        198763
#        210731
#        227314
#        236193
#        249806
#        259967
#        281196
#        288169
#
# Disc length: 4121 seconds
#
# Revision: 0
# Processed by: cddbd v1.5.2PL0 Copyright (c) Steve Scherf et al.
# Submitted via: ExactAudioCopy v1.0b6
#
DISCID=5610171b
DTITLE=Dorothea Röschmann, Mitsuko Uchida - Schumann: Liederkreis - Fra
DTITLE=uenliebe Und Leben - Berg: Sieben Frühe Lieder (2015)
DYEAR=2015
DGENRE=Classical
TTITLE0=Schumann: Liederkreis, Op. 39 - In Der Fremde
TTITLE1=Schumann: Liederkreis, Op. 39 - Intermezzo
TTITLE2=Schumann: Liederkreis, Op. 39 - Waldesgesprach
TTITLE3=Schumann: Liederkreis, Op. 39 - Die Stille
TTITLE4=Schumann: Liederkreis, Op. 39 - Mondnacht
TTITLE5=Schumann: Liederkreis, Op. 39 - Schöne Fremde
TTITLE6=Schumann: Liederkreis, Op. 39 - Auf Einer Burg
TTITLE7=Schumann: Liederkreis, Op. 39 - In Der Fremde
TTITLE8=Schumann: Liederkreis, Op. 39 - Wehmut
TTITLE9=Schumann: Liederkreis, Op. 39 - Zwielicht
TTITLE10=Schumann: Liederkreis, Op. 39 - Im Walde
TTITLE11=Schumann: Liederkreis, Op. 39 - Frühlingsnacht
TTITLE12=Berg: 7 Frühe Lieder - 1. Nacht
TTITLE13=Berg: 7 Frühe Lieder - 2. Schilflied
TTITLE14=Berg: 7 Frühe Lieder - 3. Die Nachtigall
TTITLE15=Berg: 7 Frühe Lieder - 4. Traumgekrönt
TTITLE16=Berg: 7 Frühe Lieder - 5. Im Zimmer
TTITLE17=Berg: 7 Frühe Lieder - 6. Liebesode
TTITLE18=Berg: 7 Frühe Lieder - 7. Sommertage
TTITLE19=Schumann: Frauenliebe Und Leben, Op. 42 - 1. Seit Ich Ihn Ges
TTITLE19=ehen
TTITLE20=Schumann: Frauenliebe Und Leben, Op. 42 - 2. Er, Der Herrlich
TTITLE20=ste Von Allen
TTITLE21=Schumann: Frauenliebe Und Leben, Op. 42 - 3. Ich Kann's Nicht
TTITLE21=Fassen, Nicht Glauben
TTITLE22=Schumann: Frauenliebe Und Leben, Op. 42 - 4. Du Ring An Meine
TTITLE22=m Finger
TTITLE23=Schumann: Frauenliebe Und Leben, Op. 42 - 5. Helft Mir, Ihr S
TTITLE23=chwestern
TTITLE24=Schumann: Frauenliebe Und Leben, Op. 42 - 6. Süsser Freund, D
TTITLE24=u Blickest Mich Verwundert An
TTITLE25=Schumann: Frauenliebe Und Leben, Op. 42 - 7. An Meinem Herzen
TTITLE25=, An Meiner Brust
TTITLE26=Schumann: Frauenliebe Und Leben, Op. 42 - 8. Nun Hast Du Mir 
TTITLE26=Den Ersten Schmerz
EXTD=
EXTT0=
EXTT1=
EXTT2=
EXTT3=
EXTT4=
EXTT5=
EXTT6=
EXTT7=
EXTT8=
EXTT9=
EXTT10=
EXTT11=
EXTT12=
EXTT13=
EXTT14=
EXTT15=
EXTT16=
EXTT17=
EXTT18=
EXTT19=
EXTT20=
EXTT21=
EXTT22=
EXTT23=
EXTT24=
EXTT25=
EXTT26=
PLAYORDER=
